<svg xmlns="http://www.w3.org/2000/svg" width="2145" height="2115" fill="none" viewBox="0 0 2145 2115">
    <g opacity=".04">
        <path stroke="url(#paint0_linear)" d="M1983.25 1057.42c0 496.15-407.8 898.37-910.85 898.37-503.057 0-910.853-402.22-910.853-898.37S569.343 159.05 1072.4 159.05c503.05 0 910.85 402.22 910.85 898.37z"/>
        <path stroke="url(#paint1_linear)" d="M2144.3 1057.42c0 583.71-479.9 1056.92-1071.9 1056.92C480.399 2114.34.5 1641.13.5 1057.42.5 473.705 480.399.5 1072.4.5c592 0 1071.9 473.205 1071.9 1056.92z"/>
        <path stroke="url(#paint2_linear)" d="M1831.36 1057.42c0 413.41-339.79 748.55-758.96 748.55s-758.961-335.14-758.961-748.55c0-413.412 339.791-748.558 758.961-748.558s758.96 335.146 758.96 748.558z"/>
        <path stroke="url(#paint3_linear)" d="M1679.47 1057.42c0 330.67-271.79 598.74-607.07 598.74-335.282 0-607.069-268.07-607.069-598.74 0-330.674 271.787-598.747 607.069-598.747 335.28 0 607.07 268.073 607.07 598.747z"/>
        <path stroke="url(#paint4_linear)" d="M1535.28 1024.37c0 247.94-203.78 448.94-455.17 448.94-251.394 0-455.177-201-455.177-448.94 0-247.929 203.783-448.93 455.177-448.93 251.39 0 455.17 201.001 455.17 448.93z"/>
        <path stroke="url(#paint5_linear)" d="M1383.39 1024.37c0 165.2-135.78 299.13-303.28 299.13-167.506 0-303.285-133.93-303.285-299.13 0-165.191 135.779-299.119 303.285-299.119 167.5 0 303.28 133.928 303.28 299.119z"/>
        <path stroke="url(#paint6_linear)" d="M1231.5 1024.37c0 82.46-67.77 149.31-151.39 149.31-83.619 0-151.393-66.85-151.393-149.31 0-82.452 67.774-149.308 151.393-149.308 83.62 0 151.39 66.856 151.39 149.308z"/>
    </g>
    <defs>
        <linearGradient id="paint0_linear" x1="1072.4" x2="1072.4" y1="158.55" y2="1956.29" gradientUnits="userSpaceOnUse">
            <stop stop-color="#FED85F"/>
            <stop offset=".453" stop-color="#FED85F" stop-opacity="0"/>
        </linearGradient>
        <linearGradient id="paint1_linear" x1="1072.4" x2="1072.4" y1="0" y2="2114.84" gradientUnits="userSpaceOnUse">
            <stop stop-color="#FED85F"/>
            <stop offset=".453" stop-color="#FED85F" stop-opacity="0"/>
        </linearGradient>
        <linearGradient id="paint2_linear" x1="1072.4" x2="1072.4" y1="308.362" y2="1806.47" gradientUnits="userSpaceOnUse">
            <stop stop-color="#FED85F"/>
            <stop offset=".453" stop-color="#FED85F" stop-opacity="0"/>
        </linearGradient>
        <linearGradient id="paint3_linear" x1="1072.4" x2="1072.4" y1="458.173" y2="1656.66" gradientUnits="userSpaceOnUse">
            <stop stop-color="#FED85F"/>
            <stop offset=".453" stop-color="#FED85F" stop-opacity="0"/>
        </linearGradient>
        <linearGradient id="paint4_linear" x1="1080.11" x2="1080.11" y1="574.94" y2="1473.81" gradientUnits="userSpaceOnUse">
            <stop stop-color="#FED85F"/>
            <stop offset=".453" stop-color="#FED85F" stop-opacity="0"/>
        </linearGradient>
        <linearGradient id="paint5_linear" x1="1080.11" x2="1080.11" y1="724.751" y2="1324" gradientUnits="userSpaceOnUse">
            <stop stop-color="#FED85F"/>
            <stop offset=".453" stop-color="#FED85F" stop-opacity="0"/>
        </linearGradient>
        <linearGradient id="paint6_linear" x1="1080.11" x2="1080.11" y1="874.562" y2="1174.18" gradientUnits="userSpaceOnUse">
            <stop stop-color="#FED85F"/>
            <stop offset=".453" stop-color="#FED85F" stop-opacity="0"/>
        </linearGradient>
    </defs>
</svg>
